<svg width="53" height="39" viewBox="0 0 53 39" fill="none" xmlns="http://www.w3.org/2000/svg">
<g clip-path="url(#clip0_33793_183)">
<path d="M1050 31C1041.78 31 1037.49 26.4 1034.02 22.7C1030.92 19.4 1028.63 17 1023.8 17C1018.87 17 1016.67 19.4 1013.57 22.7C1010.1 26.4 1005.81 31 997.591 31C989.374 31 985.083 26.4 981.613 22.7C978.509 19.4 976.226 17 971.387 17C966.548 17 964.265 19.4 961.161 22.7C957.691 26.4 953.4 31 945.183 31C936.965 31 932.674 26.4 929.204 22.7C926.1 19.4 923.817 17 918.978 17C914.048 17 911.857 19.4 908.752 22.7C905.283 26.4 900.991 31 892.774 31C884.557 31 880.265 26.4 876.796 22.7C873.691 19.4 871.409 17 866.57 17C861.639 17 859.448 19.4 856.344 22.7C852.509 26.4 848.217 31 840 31C831.783 31 827.491 26.4 824.022 22.7C820.917 19.4 818.635 17 813.796 17C808.865 17 806.674 19.4 803.57 22.7C800.1 26.4 795.809 31 787.591 31C779.374 31 775.083 26.4 771.613 22.7C768.509 19.4 766.226 17 761.387 17C756.457 17 754.265 19.4 751.161 22.7C747.509 26.4 743.217 31 735 31C726.783 31 722.491 26.4 719.022 22.7C715.917 19.4 713.635 17 708.796 17C703.865 17 701.674 19.4 698.57 22.7C695.1 26.4 690.809 31 682.591 31C674.374 31 670.083 26.4 666.613 22.7C663.509 19.4 661.226 17 656.387 17C651.548 17 649.265 19.4 646.161 22.7C642.6 26.4 638.217 31 630 31C621.783 31 617.491 26.4 614.022 22.7C610.917 19.4 608.635 17 603.796 17C598.865 17 596.674 19.4 593.57 22.7C590.1 26.4 585.809 31 577.591 31C569.374 31 565.083 26.4 561.613 22.7C558.509 19.4 556.226 17 551.387 17C546.457 17 544.265 19.4 541.161 22.7C537.691 26.4 533.4 31 525.183 31C516.965 31 512.674 26.4 509.204 22.7C506.1 19.4 503.817 17 498.978 17C494.139 17 491.857 19.4 488.752 22.7C485.283 26.4 480.991 31 472.774 31C464.557 31 460.265 26.4 456.796 22.7C453.691 19.4 451.409 17 446.57 17C441.639 17 439.448 19.4 436.343 22.7C432.874 26.4 428.583 31 420.365 31C412.148 31 407.857 26.4 404.387 22.7C401.283 19.4 399 17 394.161 17C389.23 17 387.039 19.4 383.935 22.7C380.465 26.4 376.174 31 367.957 31C359.739 31 355.448 26.4 351.978 22.7C348.874 19.4 346.591 17 341.752 17C336.822 17 334.63 19.4 331.526 22.7C328.057 26.4 323.765 31 315.548 31C307.33 31 303.039 26.4 299.57 22.7C296.465 19.4 294.183 17 289.343 17C284.504 17 282.222 19.4 279.117 22.7C275.648 26.4 271.357 31 263.139 31C254.922 31 250.63 26.4 247.161 22.7C244.057 19.4 241.774 17 236.935 17C232.004 17 229.813 19.4 226.709 22.7C223.239 26.4 218.948 31 210.73 31C202.513 31 198.222 26.4 194.752 22.7C191.648 19.4 189.365 17 184.526 17C179.596 17 177.404 19.4 174.3 22.7C170.83 26.4 166.539 31 158.322 31C150.104 31 145.813 26.4 142.343 22.7C139.239 19.4 136.957 17 132.117 17C127.187 17 124.996 19.4 121.891 22.7C117.6 26.4 113.217 31 105 31C96.7826 31 92.4913 26.4 89.0217 22.7C85.9174 19.4 83.6348 17 78.7957 17C73.8652 17 71.6739 19.4 68.5696 22.7C65.1 26.4 60.8087 31 52.5913 31C44.3739 31 40.0826 26.4 36.613 22.7C33.4174 19.4 31.1348 17 26.2957 17C21.3652 17 19.1739 19.4 16.0696 22.7C12.5087 26.4 8.21739 31 0 31V22C4.93043 22 7.12174 19.6 10.2261 16.3C13.6957 12.6 17.987 8 26.2957 8C34.513 8 38.8043 12.6 42.2739 16.3C45.3783 19.6 47.6609 22 52.5 22C57.4304 22 59.6217 19.6 62.7261 16.3C66.1957 12.6 70.5783 8 78.7957 8C87.013 8 91.3044 12.6 94.7739 16.3C97.8783 19.6 100.161 22 105 22C109.93 22 112.122 19.6 115.226 16.3C118.696 12.6 122.987 8 131.204 8C139.422 8 143.713 12.6 147.183 16.3C150.287 19.6 152.57 22 157.409 22C162.339 22 164.53 19.6 167.635 16.3C171.104 12.6 175.396 8 183.613 8C191.83 8 196.122 12.6 199.591 16.3C202.696 19.6 204.978 22 209.817 22C214.748 22 216.939 19.6 220.043 16.3C223.513 12.6 227.804 8 236.022 8C244.239 8 248.53 12.6 252 16.3C255.104 19.6 257.387 22 262.226 22C267.157 22 269.348 19.6 272.452 16.3C275.922 12.6 280.213 8 288.43 8C296.648 8 300.939 12.6 304.409 16.3C307.513 19.6 309.796 22 314.635 22C319.565 22 321.757 19.6 324.861 16.3C328.33 12.6 332.622 8 340.839 8C349.057 8 353.348 12.6 356.817 16.3C359.922 19.6 362.204 22 367.043 22C371.883 22 374.165 19.6 377.27 16.3C380.739 12.6 385.03 8 393.248 8C401.465 8 405.757 12.6 409.226 16.3C412.33 19.6 414.613 22 419.452 22C424.383 22 426.574 19.6 429.678 16.3C433.148 12.6 437.439 8 445.657 8C453.874 8 458.165 12.6 461.635 16.3C464.739 19.6 467.022 22 471.861 22C476.791 22 478.983 19.6 482.087 16.3C485.557 12.6 489.848 8 498.065 8C506.283 8 510.574 12.6 514.043 16.3C517.148 19.6 519.43 22 524.27 22C529.2 22 531.391 19.6 534.496 16.3C537.965 12.6 542.257 8 550.474 8C558.691 8 562.983 12.6 566.452 16.3C569.557 19.6 571.839 22 576.678 22C581.609 22 583.8 19.6 586.904 16.3C590.374 12.6 594.665 8 602.883 8C611.1 8 615.391 12.6 618.861 16.3C621.965 19.6 624.248 22 629.087 22C634.017 22 636.209 19.6 639.313 16.3C642.783 12.6 647.074 8 655.291 8C663.509 8 667.8 12.6 671.27 16.3C674.374 19.6 676.657 22 681.496 22C686.426 22 688.617 19.6 691.722 16.3C695.191 12.6 699.483 8 707.7 8C715.917 8 720.209 12.6 723.678 16.3C726.783 19.6 729.065 22 733.904 22C738.835 22 741.026 19.6 744.13 16.3C748.696 12.6 752.987 8 761.296 8C769.513 8 773.804 12.6 777.274 16.3C780.378 19.6 782.661 22 787.5 22C792.339 22 794.622 19.6 797.726 16.3C801.196 12.6 805.487 8 813.704 8C821.922 8 826.213 12.6 829.683 16.3C832.787 19.6 835.07 22 839.909 22C844.748 22 847.03 19.6 850.135 16.3C853.696 12.6 857.987 8 866.296 8C874.604 8 878.804 12.6 882.274 16.3C885.378 19.6 887.661 22 892.5 22C897.339 22 899.622 19.6 902.726 16.3C906.196 12.6 910.487 8 918.704 8C926.922 8 931.213 12.6 934.683 16.3C937.787 19.6 940.07 22 944.909 22C949.839 22 952.03 19.6 955.135 16.3C958.604 12.6 962.896 8 971.113 8C979.33 8 983.622 12.6 987.091 16.3C990.196 19.6 992.478 22 997.317 22C1002.16 22 1004.44 19.6 1007.54 16.3C1011.01 12.6 1015.3 8 1023.52 8C1031.74 8 1036.03 12.6 1039.5 16.3C1042.6 19.6 1044.89 22 1049.73 22V31H1050Z" fill="#F1F1F1"/>
</g>
<defs>
<clipPath id="clip0_33793_183">
<rect width="53" height="39" fill="white"/>
</clipPath>
</defs>
</svg>
