<svg width="21" height="18" viewBox="0 0 21 18" fill="none" xmlns="http://www.w3.org/2000/svg">
<path d="M20.3311 0.247266C20.5097 0.396577 20.5958 0.629258 20.5576 0.858842L17.9314 16.6158C17.8948 16.8355 17.7492 17.0217 17.5448 17.1103C17.3404 17.1988 17.105 17.1777 16.9196 17.0541L9.04118 11.8018C8.88807 11.6997 8.78483 11.5381 8.7566 11.3562C8.72837 11.1744 8.77774 10.9891 8.89269 10.8454L11.5033 7.58209L7.14339 10.4887C6.94736 10.6194 6.69633 10.635 6.4856 10.5297L1.23329 7.90351C0.998054 7.78589 0.855708 7.53924 0.871561 7.27671C0.887414 7.01419 1.05841 6.78646 1.30609 6.698L19.6892 0.132618C19.9083 0.0543359 20.1526 0.097955 20.3311 0.247266ZM3.19662 7.41711L6.73204 9.18482L14.2935 4.14386C14.5628 3.9643 14.9228 4.00785 15.1416 4.24646C15.3604 4.48506 15.3726 4.8475 15.1703 5.10027L10.3654 11.1065L16.8031 15.3983L19.0787 1.74494L3.19662 7.41711Z" />
</svg>
