<svg width="27" height="35" viewBox="0 0 27 35" fill="none" xmlns="http://www.w3.org/2000/svg">
<path d="M13.7001 0.0444336H13.6001L0.100098 1.44443V26.1444L13.6001 34.1444L27.0001 26.1444V1.44443L13.7001 0.0444336ZM25.1001 12.1444L13.6001 5.34443V5.24443H13.5001L13.4001 5.14443V5.24443L2.0001 12.1444V3.14443L13.5001 1.94443L25.1001 3.14443V12.1444ZM13.5001 6.84443L25.0001 13.5444L20.5001 16.1444L13.4001 11.9444V13.3444L19.3001 16.8444L18.4001 17.3444L13.4001 14.3444V15.7444L17.2001 18.0444L16.4001 18.5444L13.4001 16.7444V18.1444L15.3001 19.2444L13.5001 20.3444L2.1001 13.6444L13.5001 6.84443ZM2.0001 15.1444L13.4001 21.9444V22.9444L5.5001 18.2444V19.6444L13.5001 24.4444V25.5444L5.5001 20.8444V22.2444L13.5001 27.0444L21.6001 22.1444V16.9444L25.0001 14.9444V24.9444L13.5001 31.8444L2.0001 25.0444V15.1444Z" />
</svg>
