<svg width="25" height="19" viewBox="0 0 25 19" fill="none" xmlns="http://www.w3.org/2000/svg">
<path d="M16.7213 8.88711L11.4849 5.3962C11.3863 5.33127 11.272 5.29421 11.154 5.28895C11.0361 5.2837 10.9189 5.31044 10.815 5.36634C10.711 5.42225 10.624 5.50523 10.5634 5.60651C10.5027 5.70779 10.4706 5.8236 10.4704 5.94165V12.9235C10.4705 13.0425 10.5031 13.1592 10.5646 13.2611C10.6261 13.3629 10.7142 13.4461 10.8195 13.5017C10.9228 13.5574 11.0394 13.5839 11.1567 13.5781C11.274 13.5723 11.3875 13.5346 11.4849 13.4689L16.7213 9.97802C16.8113 9.91831 16.8851 9.83726 16.9362 9.74208C16.9873 9.64691 17.014 9.54058 17.014 9.43256C17.014 9.32455 16.9873 9.21821 16.9362 9.12304C16.8851 9.02787 16.8113 8.94681 16.7213 8.88711ZM11.7795 11.7017V7.16347L15.1831 9.43256L11.7795 11.7017ZM24.2595 3.13802C24.1645 2.76983 23.9835 2.42947 23.7312 2.14497C23.479 1.86047 23.1627 1.63997 22.8085 1.50165C19.0885 0.072561 13.1213 0.0943795 12.8704 0.0943795C12.6195 0.0943795 6.65218 0.072561 2.93218 1.50165C2.578 1.63997 2.26176 1.86047 2.00951 2.14497C1.75725 2.42947 1.5762 2.76983 1.48127 3.13802C1.19763 4.20711 0.870361 6.17074 0.870361 9.43256C0.870361 12.6944 1.19763 14.658 1.48127 15.7271C1.5762 16.0953 1.75725 16.4357 2.00951 16.7202C2.26176 17.0047 2.578 17.2252 2.93218 17.3635C6.65218 18.7926 12.6195 18.7707 12.8704 18.7707H12.9467C13.6995 18.7707 19.2631 18.7271 22.8085 17.3635C23.1627 17.2252 23.479 17.0047 23.7312 16.7202C23.9835 16.4357 24.1645 16.0953 24.2595 15.7271C24.5431 14.658 24.8704 12.6944 24.8704 9.43256C24.8704 6.17074 24.5431 4.20711 24.2595 3.13802ZM22.994 15.3998C22.9511 15.5663 22.8694 15.7203 22.7556 15.8492C22.6419 15.9781 22.4993 16.0783 22.3395 16.1417C18.8485 17.4835 12.9358 17.4617 12.8704 17.4617C12.8049 17.4617 6.89218 17.4835 3.40127 16.1417C3.24143 16.0783 3.09882 15.9781 2.98507 15.8492C2.87132 15.7203 2.78965 15.5663 2.74673 15.3998C2.48491 14.3962 2.17945 12.5526 2.17945 9.43256C2.17945 6.31256 2.48491 4.46893 2.74673 3.46529C2.78965 3.29881 2.87132 3.14483 2.98507 3.01592C3.09882 2.887 3.24143 2.78679 3.40127 2.72347C6.89218 1.38165 12.8049 1.40347 12.8704 1.40347C12.9358 1.40347 18.8485 1.38165 22.3395 2.72347C22.4993 2.78679 22.6419 2.887 22.7556 3.01592C22.8694 3.14483 22.9511 3.29881 22.994 3.46529C23.2558 4.46893 23.5613 6.31256 23.5613 9.43256C23.5613 12.5526 23.2558 14.3962 22.994 15.3998Z" />
</svg>
