<svg width="28" height="18" viewBox="0 0 28 18" fill="none" xmlns="http://www.w3.org/2000/svg">
<path d="M0.870361 2.43312C0.870361 1.57809 1.38546 1.11704 2.41567 1.04998L6.38551 1.07513C6.65195 1.07513 6.82957 1.20087 6.91838 1.45235C7.32691 2.70974 7.78428 3.7953 8.2905 4.70901C8.79673 5.62271 9.45837 6.67474 10.2754 7.86507C10.3465 8.01596 10.4619 8.0914 10.6218 8.0914C10.7461 8.0914 10.8438 8.03272 10.9149 7.91537L10.9948 7.63874L11.0214 3.28815C11.0214 2.98637 10.9459 2.78519 10.795 2.6846C10.644 2.58401 10.3642 2.50856 9.95571 2.45827C9.63599 2.40797 9.47613 2.22355 9.47613 1.90501C9.47613 1.83795 9.48501 1.78765 9.50277 1.75412C9.87578 0.66438 10.9415 0.119508 12.7 0.119508L14.192 0.0943604C14.8669 0.0943604 15.4265 0.253631 15.8705 0.572171C16.3146 0.890711 16.5366 1.39367 16.5366 2.08105V7.78963C16.6609 7.87345 16.7764 7.91537 16.883 7.91537C17.1494 7.91537 17.3803 7.76448 17.5757 7.4627C19.5295 4.88085 20.5864 3.15403 20.7462 2.28223C20.7462 2.26546 20.764 2.22355 20.7995 2.15649C20.9238 1.90501 21.1281 1.68706 21.4123 1.50264C21.6965 1.31823 21.9452 1.19249 22.1583 1.12543C22.2294 1.09189 22.3093 1.07513 22.3981 1.07513H26.5278L26.7942 1.10028C27.1495 1.10028 27.4248 1.25955 27.6202 1.57809C27.6912 1.67868 27.7401 1.78765 27.7667 1.90501C27.7934 2.02237 27.8111 2.13973 27.82 2.25708C27.8289 2.37444 27.8333 2.4415 27.8333 2.45827V2.6343C27.709 3.32168 27.3937 4.05516 26.8875 4.83474C26.3813 5.61433 25.7374 6.45679 24.9559 7.36211C24.1743 8.26744 23.6859 8.86261 23.4905 9.14762C23.3306 9.3488 23.2507 9.53322 23.2507 9.70087C23.2507 9.83499 23.3217 9.98588 23.4638 10.1535L27.3537 14.7808C27.5669 15.049 27.6735 15.3424 27.6735 15.6609C27.6735 16.0465 27.5136 16.3651 27.1939 16.6166C26.8742 16.868 26.4923 17.0105 26.0482 17.0441L25.5953 17.0692H21.5455C21.5278 17.0692 21.4922 17.0734 21.4389 17.0818C21.3857 17.0902 21.3501 17.0944 21.3324 17.0944C20.9416 17.0944 20.5775 16.9351 20.24 16.6166C20.1157 16.4824 19.2808 15.4933 17.7355 13.6491C17.6467 13.5317 17.5224 13.4228 17.3625 13.3222C17.2915 13.5904 17.1982 13.976 17.0828 14.479C16.9673 14.9819 16.883 15.3424 16.8297 15.5603L16.7497 15.9879C16.5721 16.5746 16.1991 16.9267 15.6307 17.0441L15.2577 17.0692H12.6467C11.1724 17.0692 9.7026 16.4321 8.23722 15.158C6.77184 13.8838 5.453 12.2366 4.2807 10.2164C3.10839 8.19619 2.01602 5.84485 1.00358 3.16241C0.914767 2.94446 0.870361 2.70136 0.870361 2.43312ZM16.883 8.94643C16.5099 8.94643 16.1725 8.85003 15.8705 8.65723C15.5686 8.46443 15.4176 8.20038 15.4176 7.86507V2.08105C15.4176 1.74574 15.3288 1.50684 15.1511 1.36433C14.9735 1.22183 14.6627 1.15057 14.2186 1.15057L12.7 1.20087C11.9362 1.20087 11.3589 1.32661 10.9682 1.57809C11.7497 1.93016 12.1405 2.50018 12.1405 3.28815V7.71418C12.1049 8.13332 11.9273 8.48119 11.6076 8.75782C11.2879 9.03445 10.9326 9.17276 10.5419 9.17276C10.009 9.17276 9.60046 8.92967 9.31627 8.44347C7.93082 6.46517 6.90062 4.58746 6.22565 2.81034L5.98586 2.15649L2.44231 2.13134C2.2114 2.13134 2.08263 2.14392 2.05599 2.16906C2.02934 2.19421 2.01602 2.26547 2.01602 2.38282C2.01602 2.53371 2.03378 2.69298 2.06931 2.86063L2.62882 4.26892C4.12084 7.90698 5.74163 10.7738 7.49121 12.8695C9.24078 14.9652 10.9593 16.013 12.6467 16.013H15.311C15.4176 16.013 15.4975 15.9837 15.5508 15.925C15.6041 15.8663 15.6485 15.7531 15.684 15.5855L15.7373 15.334L16.2435 13.121C16.3856 12.8192 16.5099 12.618 16.6165 12.5174C16.8119 12.333 17.0428 12.2408 17.3092 12.2408C17.7355 12.2408 18.1707 12.4839 18.6148 12.9701L20.8794 15.6861C21.0215 15.904 21.1725 16.013 21.3324 16.013H25.7285C26.2614 16.013 26.5278 15.8873 26.5278 15.6358C26.5278 15.552 26.5012 15.4681 26.4479 15.3843L22.5846 10.8325C22.2826 10.4805 22.1317 10.1032 22.1317 9.70087C22.1317 9.2985 22.2738 8.9129 22.558 8.54406C22.7889 8.20876 23.2374 7.65131 23.9034 6.87173C24.5695 6.09214 25.1512 5.36285 25.6486 4.68386C26.1459 4.00486 26.4745 3.38874 26.6344 2.83548L26.7143 2.50856C26.6965 2.47503 26.6877 2.42054 26.6877 2.3451C26.6877 2.26966 26.6788 2.20679 26.661 2.15649H22.478C22.2116 2.25708 21.9985 2.40797 21.8386 2.60915L21.6787 3.08696C21.2347 4.24377 20.0713 6.02927 18.1885 8.44347C17.8155 8.77878 17.3803 8.94643 16.883 8.94643Z" />
</svg>
